<svg width="491" height="187" viewBox="0 0 491 187" fill="none" xmlns="http://www.w3.org/2000/svg">
<path d="M21.888 91.96H50.56V108.856H0V19H21.888V91.96Z" fill="black"/>
<path d="M127.688 37.432V108.856H105.8V99.128C103.581 102.285 100.552 104.845 96.712 106.808C92.9573 108.685 88.776 109.624 84.168 109.624C78.7067 109.624 73.8853 108.429 69.704 106.04C65.5227 103.565 62.28 100.024 59.976 95.416C57.672 90.808 56.52 85.3893 56.52 79.16V37.432H78.28V76.216C78.28 80.9947 79.5173 84.7067 81.992 87.352C84.4667 89.9973 87.7947 91.32 91.976 91.32C96.2427 91.32 99.6133 89.9973 102.088 87.352C104.563 84.7067 105.8 80.9947 105.8 76.216V37.432H127.688Z" fill="black"/>
<path d="M230.706 36.664C239.581 36.664 246.621 39.352 251.826 44.728C257.117 50.104 259.762 57.5707 259.762 67.128V108.856H238.002V70.072C238.002 65.464 236.765 61.9227 234.29 59.448C231.901 56.888 228.573 55.608 224.306 55.608C220.039 55.608 216.669 56.888 214.194 59.448C211.805 61.9227 210.61 65.464 210.61 70.072V108.856H188.85V70.072C188.85 65.464 187.613 61.9227 185.138 59.448C182.749 56.888 179.421 55.608 175.154 55.608C170.887 55.608 167.517 56.888 165.042 59.448C162.653 61.9227 161.458 65.464 161.458 70.072V108.856H139.57V37.432H161.458V46.392C163.677 43.4053 166.578 41.0587 170.162 39.352C173.746 37.56 177.799 36.664 182.322 36.664C187.698 36.664 192.477 37.816 196.658 40.12C200.925 42.424 204.253 45.7093 206.642 49.976C209.117 46.0507 212.487 42.8507 216.754 40.376C221.021 37.9013 225.671 36.664 230.706 36.664Z" fill="black"/>
<path d="M266.878 73.016C266.878 65.6773 268.243 59.2347 270.974 53.688C273.79 48.1413 277.587 43.8747 282.366 40.888C287.145 37.9013 292.478 36.408 298.366 36.408C303.401 36.408 307.795 37.432 311.55 39.48C315.39 41.528 318.334 44.216 320.382 47.544V37.432H342.27V108.856H320.382V98.744C318.249 102.072 315.262 104.76 311.422 106.808C307.667 108.856 303.273 109.88 298.238 109.88C292.435 109.88 287.145 108.387 282.366 105.4C277.587 102.328 273.79 98.0187 270.974 92.472C268.243 86.84 266.878 80.3547 266.878 73.016ZM320.382 73.144C320.382 67.6827 318.846 63.3733 315.774 60.216C312.787 57.0587 309.118 55.48 304.766 55.48C300.414 55.48 296.702 57.0587 293.63 60.216C290.643 63.288 289.15 67.5547 289.15 73.016C289.15 78.4773 290.643 82.8293 293.63 86.072C296.702 89.2293 300.414 90.808 304.766 90.808C309.118 90.808 312.787 89.2293 315.774 86.072C318.846 82.9147 320.382 78.6053 320.382 73.144Z" fill="black"/>
<path d="M8.0072 144.839C9.0367 143.31 10.4475 142.067 12.2396 141.111C14.0698 140.155 16.1479 139.677 18.4738 139.677C21.181 139.677 23.6212 140.346 25.7946 141.685C28.0061 143.023 29.741 144.935 30.9993 147.421C32.2957 149.868 32.9439 152.717 32.9439 155.967C32.9439 159.218 32.2957 162.105 30.9993 164.629C29.741 167.115 28.0061 169.046 25.7946 170.423C23.6212 171.799 21.181 172.488 18.4738 172.488C16.1097 172.488 14.0317 172.029 12.2396 171.111C10.4856 170.155 9.07483 168.931 8.0072 167.44V171.971H0V129.524H8.0072V144.839ZM24.7651 155.967C24.7651 154.055 24.3648 152.411 23.564 151.034C22.8015 149.62 21.772 148.549 20.4756 147.822C19.2173 147.096 17.8446 146.732 16.3576 146.732C14.9086 146.732 13.536 147.115 12.2396 147.88C10.9813 148.606 9.95181 149.677 9.15109 151.092C8.3885 152.507 8.0072 154.17 8.0072 156.082C8.0072 157.994 8.3885 159.658 9.15109 161.073C9.95181 162.488 10.9813 163.577 12.2396 164.342C13.536 165.069 14.9086 165.432 16.3576 165.432C17.8446 165.432 19.2173 165.05 20.4756 164.285C21.772 163.52 22.8015 162.43 23.564 161.015C24.3648 159.6 24.7651 157.918 24.7651 155.967Z" fill="#CC1F20"/>
<path d="M67.9316 140.193L48.314 187H39.792L46.6553 171.168L33.9582 140.193H42.9377L51.1165 162.392L59.4097 140.193H67.9316Z" fill="#CC1F20"/>
<path d="M112.7 144.323C112.7 146.465 112.186 148.472 111.156 150.346C110.165 152.22 108.582 153.73 106.409 154.878C104.274 156.025 101.567 156.598 98.2875 156.598H91.5958V171.971H83.5886V131.933H98.2875C101.376 131.933 104.007 132.468 106.18 133.539C108.354 134.61 109.974 136.082 111.042 137.956C112.148 139.83 112.7 141.952 112.7 144.323ZM97.9443 150.117C100.156 150.117 101.795 149.62 102.863 148.625C103.931 147.593 104.464 146.159 104.464 144.323C104.464 140.423 102.291 138.472 97.9443 138.472H91.5958V150.117H97.9443Z" fill="#CC1F20"/>
<path d="M146.697 155.394C146.697 156.541 146.62 157.574 146.468 158.491H123.304C123.495 160.786 124.296 162.583 125.706 163.883C127.117 165.184 128.852 165.834 130.911 165.834C133.885 165.834 136.001 164.553 137.26 161.99H145.896C144.981 165.05 143.227 167.574 140.634 169.562C138.041 171.512 134.857 172.488 131.083 172.488C128.032 172.488 125.287 171.818 122.847 170.48C120.444 169.103 118.557 167.172 117.184 164.686C115.85 162.201 115.183 159.333 115.183 156.082C115.183 152.794 115.85 149.906 117.184 147.421C118.519 144.935 120.387 143.023 122.789 141.685C125.192 140.346 127.956 139.677 131.083 139.677C134.095 139.677 136.783 140.327 139.147 141.627C141.549 142.927 143.398 144.782 144.695 147.191C146.029 149.562 146.697 152.296 146.697 155.394ZM138.403 153.099C138.365 151.034 137.622 149.39 136.173 148.166C134.724 146.904 132.951 146.273 130.854 146.273C128.871 146.273 127.193 146.885 125.821 148.109C124.486 149.294 123.666 150.958 123.361 153.099H138.403Z" fill="#CC1F20"/>
<path d="M159.405 145.126C160.434 143.444 161.769 142.124 163.408 141.168C165.086 140.212 166.992 139.734 169.128 139.734V148.166H167.011C164.495 148.166 162.588 148.759 161.292 149.945C160.034 151.13 159.405 153.195 159.405 156.14V171.971H151.397V140.193H159.405V145.126Z" fill="#CC1F20"/>
<path d="M187.904 146.79H182.356V171.971H174.235V146.79H170.632V140.193H174.235V138.587C174.235 134.686 175.341 131.818 177.552 129.983C179.764 128.147 183.1 127.287 187.561 127.402V134.17C185.616 134.132 184.263 134.457 183.5 135.145C182.738 135.834 182.356 137.076 182.356 138.874V140.193H187.904V146.79Z" fill="#CC1F20"/>
<path d="M196.01 136.407C194.599 136.407 193.417 135.967 192.464 135.088C191.549 134.17 191.091 133.042 191.091 131.704C191.091 130.365 191.549 129.256 192.464 128.377C193.417 127.459 194.599 127 196.01 127C197.421 127 198.584 127.459 199.499 128.377C200.452 129.256 200.929 130.365 200.929 131.704C200.929 133.042 200.452 134.17 199.499 135.088C198.584 135.967 197.421 136.407 196.01 136.407ZM199.957 140.193V171.971H191.949V140.193H199.957Z" fill="#CC1F20"/>
<path d="M204.665 156.082C204.665 152.794 205.332 149.925 206.667 147.478C208.001 144.992 209.85 143.08 212.215 141.742C214.579 140.365 217.286 139.677 220.336 139.677C224.263 139.677 227.504 140.671 230.059 142.66C232.652 144.61 234.387 147.363 235.264 150.92H226.627C226.17 149.543 225.388 148.472 224.283 147.707C223.215 146.904 221.88 146.503 220.279 146.503C217.991 146.503 216.18 147.344 214.845 149.027C213.511 150.671 212.844 153.023 212.844 156.082C212.844 159.103 213.511 161.455 214.845 163.138C216.18 164.782 217.991 165.604 220.279 165.604C223.52 165.604 225.636 164.151 226.627 161.245H235.264C234.387 164.686 232.652 167.421 230.059 169.447C227.466 171.474 224.225 172.488 220.336 172.488C217.286 172.488 214.579 171.818 212.215 170.48C209.85 169.103 208.001 167.191 206.667 164.744C205.332 162.258 204.665 159.371 204.665 156.082Z" fill="#CC1F20"/>
<path d="M244.047 136.407C242.636 136.407 241.454 135.967 240.501 135.088C239.586 134.17 239.128 133.042 239.128 131.704C239.128 130.365 239.586 129.256 240.501 128.377C241.454 127.459 242.636 127 244.047 127C245.457 127 246.62 127.459 247.536 128.377C248.489 129.256 248.965 130.365 248.965 131.704C248.965 133.042 248.489 134.17 247.536 135.088C246.62 135.967 245.457 136.407 244.047 136.407ZM247.993 140.193V171.971H239.986V140.193H247.993Z" fill="#CC1F20"/>
<path d="M284.215 155.394C284.215 156.541 284.139 157.574 283.987 158.491H260.823C261.014 160.786 261.814 162.583 263.225 163.883C264.636 165.184 266.371 165.834 268.43 165.834C271.404 165.834 273.52 164.553 274.778 161.99H283.415C282.5 165.05 280.746 167.574 278.153 169.562C275.56 171.512 272.376 172.488 268.601 172.488C265.551 172.488 262.806 171.818 260.365 170.48C257.963 169.103 256.076 167.172 254.703 164.686C253.369 162.201 252.701 159.333 252.701 156.082C252.701 152.794 253.369 149.906 254.703 147.421C256.038 144.935 257.906 143.023 260.308 141.685C262.71 140.346 265.475 139.677 268.601 139.677C271.614 139.677 274.302 140.327 276.666 141.627C279.068 142.927 280.917 144.782 282.214 147.191C283.548 149.562 284.215 152.296 284.215 155.394ZM275.922 153.099C275.884 151.034 275.141 149.39 273.692 148.166C272.243 146.904 270.47 146.273 268.373 146.273C266.39 146.273 264.712 146.885 263.339 148.109C262.005 149.294 261.185 150.958 260.88 153.099H275.922Z" fill="#CC1F20"/>
<path d="M306.475 139.734C310.25 139.734 313.3 140.939 315.626 143.348C317.952 145.719 319.115 149.046 319.115 153.329V171.971H311.107V154.419C311.107 151.895 310.478 149.964 309.22 148.625C307.962 147.249 306.246 146.56 304.073 146.56C301.861 146.56 300.107 147.249 298.811 148.625C297.552 149.964 296.923 151.895 296.923 154.419V171.971H288.916V140.193H296.923V144.151C297.991 142.774 299.345 141.704 300.984 140.939C302.662 140.136 304.492 139.734 306.475 139.734Z" fill="#CC1F20"/>
<path d="M334.908 146.79V162.163C334.908 163.233 335.156 164.017 335.651 164.514C336.185 164.973 337.062 165.203 338.282 165.203H342V171.971H336.967C330.218 171.971 326.843 168.683 326.843 162.105V146.79H323.069V140.193H326.843V132.335H334.908V140.193H342V146.79H334.908Z" fill="#CC1F20"/>
<mask id="mask0_4_98" style="mask-type:luminance" maskUnits="userSpaceOnUse" x="363" y="0" width="128" height="128">
<path d="M491 0H363V128H491V0Z" fill="white"/>
</mask>
<g mask="url(#mask0_4_98)">
<path fill-rule="evenodd" clip-rule="evenodd" d="M427 2.66667C393.126 2.66667 365.667 30.1262 365.667 64.0001C365.667 97.874 393.126 125.333 427 125.333C460.874 125.333 488.333 97.874 488.333 64.0001C488.333 30.1262 460.874 2.66667 427 2.66667ZM363 64.0001C363 28.6534 391.653 0 427 0C462.347 0 491 28.6534 491 64.0001C491 99.3466 462.347 128 427 128C391.653 128 363 99.3466 363 64.0001Z" fill="black"/>
<path fill-rule="evenodd" clip-rule="evenodd" d="M363 64.0001L427 0L491 64.0001L427 128L363 64.0001ZM366.771 64.0001L427 124.229L487.229 64.0001L427 3.77124L366.771 64.0001Z" fill="black"/>
<path fill-rule="evenodd" clip-rule="evenodd" d="M371.563 96.0066H482.434L427 0L371.563 96.0066ZM388.885 86.0067H465.112L427 19.9985L388.885 86.0067Z" fill="black"/>
</g>
<path d="M426.613 70.5153L434.009 81.7762H443L435.589 70.5153H426.613Z" fill="black"/>
<path d="M443 45.6146H434.009L426.605 56.8643L419.201 45.6146H410.26L422.12 63.6766L410.21 81.7762H419.201L426.613 70.5152L443 45.6146Z" fill="black"/>
</svg>
